<svg xmlns="http://www.w3.org/2000/svg" xmlns:xlink="http://www.w3.org/1999/xlink" width="2000" zoomAndPan="magnify" viewBox="0 0 1500 1499.999933" height="2000" preserveAspectRatio="xMidYMid meet" version="1.0"><defs><g/><clipPath id="f18f0e0fea"><rect x="0" width="618" y="0" height="25"/></clipPath><clipPath id="a417bf794f"><rect x="0" width="606" y="0" height="90"/></clipPath><clipPath id="19f71dc1dd"><path d="M 77 0.800781 L 342.558594 0.800781 L 342.558594 91 L 77 91 Z M 77 0.800781 " clip-rule="nonzero"/></clipPath><clipPath id="98dc131d42"><rect x="0" width="266" y="0" height="91"/></clipPath><clipPath id="ecf1fe51b0"><path d="M 0.558594 8 L 70 8 L 70 97.519531 L 0.558594 97.519531 Z M 0.558594 8 " clip-rule="nonzero"/></clipPath><clipPath id="f7f4b660f4"><rect x="0" width="70" y="0" height="90"/></clipPath><clipPath id="f78e503e0b"><path d="M 46.992188 8.933594 L 54.875 8.933594 L 54.875 43.542969 L 46.992188 43.542969 Z M 46.992188 8.933594 " clip-rule="nonzero"/></clipPath><clipPath id="3b6b9714d1"><path d="M 0.992188 0.933594 L 8.875 0.933594 L 8.875 35.542969 L 0.992188 35.542969 Z M 0.992188 0.933594 " clip-rule="nonzero"/></clipPath><clipPath id="aed0181013"><rect x="0" width="9" y="0" height="36"/></clipPath><clipPath id="35ead813ad"><path d="M 23.683594 37.574219 L 27 37.574219 L 27 41 L 23.683594 41 Z M 23.683594 37.574219 " clip-rule="nonzero"/></clipPath><clipPath id="0ab11fd43c"><path d="M 27 37.574219 L 29.492188 37.574219 L 29.492188 41 L 27 41 Z M 27 37.574219 " clip-rule="nonzero"/></clipPath><clipPath id="2ac477ae35"><path d="M 23.683594 40 L 27 40 L 27 43.386719 L 23.683594 43.386719 Z M 23.683594 40 " clip-rule="nonzero"/></clipPath><clipPath id="9a4e5760c3"><path d="M 27 40 L 29.492188 40 L 29.492188 43.386719 L 27 43.386719 Z M 27 40 " clip-rule="nonzero"/></clipPath><clipPath id="3aab482070"><rect x="0" width="343" y="0" height="98"/></clipPath><clipPath id="fd61a4a089"><path d="M 754.078125 895.28125 L 757.71875 895.28125 L 757.71875 898.921875 L 754.078125 898.921875 Z M 754.078125 895.28125 " clip-rule="nonzero"/></clipPath><clipPath id="1fa3cdaaa6"><path d="M 755.898438 895.28125 C 754.894531 895.28125 754.078125 896.097656 754.078125 897.101562 C 754.078125 898.109375 754.894531 898.921875 755.898438 898.921875 C 756.90625 898.921875 757.71875 898.109375 757.71875 897.101562 C 757.71875 896.097656 756.90625 895.28125 755.898438 895.28125 Z M 755.898438 895.28125 " clip-rule="nonzero"/></clipPath><clipPath id="1ac67873c5"><path d="M 0.078125 0.28125 L 3.71875 0.28125 L 3.71875 3.921875 L 0.078125 3.921875 Z M 0.078125 0.28125 " clip-rule="nonzero"/></clipPath><clipPath id="d6d29e174d"><path d="M 1.898438 0.28125 C 0.894531 0.28125 0.078125 1.097656 0.078125 2.101562 C 0.078125 3.109375 0.894531 3.921875 1.898438 3.921875 C 2.90625 3.921875 3.71875 3.109375 3.71875 2.101562 C 3.71875 1.097656 2.90625 0.28125 1.898438 0.28125 Z M 1.898438 0.28125 " clip-rule="nonzero"/></clipPath><clipPath id="4764832a97"><rect x="0" width="4" y="0" height="4"/></clipPath><clipPath id="7389110f74"><path d="M 687.132812 1178.027344 L 691.882812 1178.027344 L 691.882812 1182.777344 L 687.132812 1182.777344 Z M 687.132812 1178.027344 " clip-rule="nonzero"/></clipPath><clipPath id="bd1ad04b80"><path d="M 689.507812 1178.027344 C 688.199219 1178.027344 687.132812 1179.089844 687.132812 1180.402344 C 687.132812 1181.714844 688.199219 1182.777344 689.507812 1182.777344 C 690.820312 1182.777344 691.882812 1181.714844 691.882812 1180.402344 C 691.882812 1179.089844 690.820312 1178.027344 689.507812 1178.027344 Z M 689.507812 1178.027344 " clip-rule="nonzero"/></clipPath><clipPath id="323115dc00"><path d="M 0.132812 0.0273438 L 4.882812 0.0273438 L 4.882812 4.777344 L 0.132812 4.777344 Z M 0.132812 0.0273438 " clip-rule="nonzero"/></clipPath><clipPath id="42e56a875c"><path d="M 2.507812 0.0273438 C 1.199219 0.0273438 0.132812 1.089844 0.132812 2.402344 C 0.132812 3.714844 1.199219 4.777344 2.507812 4.777344 C 3.820312 4.777344 4.882812 3.714844 4.882812 2.402344 C 4.882812 1.089844 3.820312 0.0273438 2.507812 0.0273438 Z M 2.507812 0.0273438 " clip-rule="nonzero"/></clipPath><clipPath id="a33aef6165"><rect x="0" width="5" y="0" height="5"/></clipPath></defs><g transform="matrix(1, 0, 0, 1, 446, 885)"><g clip-path="url(#f18f0e0fea)"><g fill="#788473" fill-opacity="1"><g transform="translate(0.753632, 17.4409)"><g><path d="M 0.75 -6.109375 C 0.75 -7.304688 1.015625 -8.378906 1.546875 -9.328125 C 2.085938 -10.273438 2.820312 -11.015625 3.75 -11.546875 C 4.6875 -12.085938 5.71875 -12.359375 6.84375 -12.359375 C 8.175781 -12.359375 9.335938 -12.035156 10.328125 -11.390625 C 11.328125 -10.753906 12.050781 -9.847656 12.5 -8.671875 L 10.59375 -8.671875 C 10.257812 -9.410156 9.773438 -9.976562 9.140625 -10.375 C 8.503906 -10.769531 7.738281 -10.96875 6.84375 -10.96875 C 5.988281 -10.96875 5.222656 -10.769531 4.546875 -10.375 C 3.867188 -9.976562 3.335938 -9.410156 2.953125 -8.671875 C 2.566406 -7.941406 2.375 -7.085938 2.375 -6.109375 C 2.375 -5.140625 2.566406 -4.289062 2.953125 -3.5625 C 3.335938 -2.832031 3.867188 -2.269531 4.546875 -1.875 C 5.222656 -1.476562 5.988281 -1.28125 6.84375 -1.28125 C 7.738281 -1.28125 8.503906 -1.472656 9.140625 -1.859375 C 9.773438 -2.253906 10.257812 -2.820312 10.59375 -3.5625 L 12.5 -3.5625 C 12.050781 -2.382812 11.328125 -1.476562 10.328125 -0.84375 C 9.335938 -0.207031 8.175781 0.109375 6.84375 0.109375 C 5.71875 0.109375 4.6875 -0.15625 3.75 -0.6875 C 2.820312 -1.21875 2.085938 -1.957031 1.546875 -2.90625 C 1.015625 -3.851562 0.75 -4.921875 0.75 -6.109375 Z M 0.75 -6.109375 "/></g></g></g><g fill="#788473" fill-opacity="1"><g transform="translate(24.156594, 17.4409)"><g><path d="M 2.90625 -12.203125 L 2.90625 -4.484375 C 2.90625 -3.398438 3.171875 -2.59375 3.703125 -2.0625 C 4.234375 -1.539062 4.972656 -1.28125 5.921875 -1.28125 C 6.859375 -1.28125 7.59375 -1.539062 8.125 -2.0625 C 8.65625 -2.59375 8.921875 -3.398438 8.921875 -4.484375 L 8.921875 -12.203125 L 10.515625 -12.203125 L 10.515625 -4.5 C 10.515625 -3.488281 10.304688 -2.632812 9.890625 -1.9375 C 9.484375 -1.238281 8.929688 -0.71875 8.234375 -0.375 C 7.546875 -0.0390625 6.769531 0.125 5.90625 0.125 C 5.039062 0.125 4.257812 -0.0390625 3.5625 -0.375 C 2.863281 -0.71875 2.3125 -1.238281 1.90625 -1.9375 C 1.507812 -2.632812 1.3125 -3.488281 1.3125 -4.5 L 1.3125 -12.203125 Z M 2.90625 -12.203125 "/></g></g></g><g fill="#788473" fill-opacity="1"><g transform="translate(45.860571, 17.4409)"><g><path d="M 7.78125 0 L 4.875 -4.984375 L 2.9375 -4.984375 L 2.9375 0 L 1.34375 0 L 1.34375 -12.203125 L 5.296875 -12.203125 C 6.210938 -12.203125 6.988281 -12.046875 7.625 -11.734375 C 8.257812 -11.421875 8.734375 -10.992188 9.046875 -10.453125 C 9.367188 -9.921875 9.53125 -9.3125 9.53125 -8.625 C 9.53125 -7.78125 9.285156 -7.035156 8.796875 -6.390625 C 8.316406 -5.753906 7.59375 -5.328125 6.625 -5.109375 L 9.6875 0 Z M 2.9375 -6.265625 L 5.296875 -6.265625 C 6.148438 -6.265625 6.789062 -6.476562 7.21875 -6.90625 C 7.65625 -7.332031 7.875 -7.90625 7.875 -8.625 C 7.875 -9.34375 7.660156 -9.898438 7.234375 -10.296875 C 6.816406 -10.691406 6.171875 -10.890625 5.296875 -10.890625 L 2.9375 -10.890625 Z M 2.9375 -6.265625 "/></g></g></g><g fill="#788473" fill-opacity="1"><g transform="translate(66.391021, 17.4409)"><g><path d="M 8.5625 -2.71875 L 3.234375 -2.71875 L 2.265625 0 L 0.578125 0 L 4.984375 -12.140625 L 6.828125 -12.140625 L 11.234375 0 L 9.546875 0 Z M 8.109375 -4.015625 L 5.90625 -10.171875 L 3.703125 -4.015625 Z M 8.109375 -4.015625 "/></g></g></g><g fill="#788473" fill-opacity="1"><g transform="translate(88.077479, 17.4409)"><g><path d="M 8.859375 -12.203125 L 8.859375 -10.90625 L 5.53125 -10.90625 L 5.53125 0 L 3.9375 0 L 3.9375 -10.90625 L 0.59375 -10.90625 L 0.59375 -12.203125 Z M 8.859375 -12.203125 "/></g></g></g><g fill="#788473" fill-opacity="1"><g transform="translate(107.434391, 17.4409)"><g><path d="M 2.9375 -10.90625 L 2.9375 -6.828125 L 7.390625 -6.828125 L 7.390625 -5.515625 L 2.9375 -5.515625 L 2.9375 -1.3125 L 7.921875 -1.3125 L 7.921875 0 L 1.34375 0 L 1.34375 -12.21875 L 7.921875 -12.21875 L 7.921875 -10.90625 Z M 2.9375 -10.90625 "/></g></g></g><g fill="#788473" fill-opacity="1"><g transform="translate(126.30088, 17.4409)"><g><path d="M 5.15625 -12.203125 C 6.476562 -12.203125 7.628906 -11.953125 8.609375 -11.453125 C 9.585938 -10.960938 10.332031 -10.253906 10.84375 -9.328125 C 11.363281 -8.410156 11.625 -7.328125 11.625 -6.078125 C 11.625 -4.828125 11.363281 -3.742188 10.84375 -2.828125 C 10.332031 -1.910156 9.585938 -1.207031 8.609375 -0.71875 C 7.628906 -0.238281 6.476562 0 5.15625 0 L 1.34375 0 L 1.34375 -12.203125 Z M 5.15625 -1.3125 C 6.726562 -1.3125 7.925781 -1.726562 8.75 -2.5625 C 9.582031 -3.394531 10 -4.566406 10 -6.078125 C 10 -7.597656 9.582031 -8.78125 8.75 -9.625 C 7.914062 -10.476562 6.71875 -10.90625 5.15625 -10.90625 L 2.9375 -10.90625 L 2.9375 -1.3125 Z M 5.15625 -1.3125 "/></g></g></g><g fill="#788473" fill-opacity="1"><g transform="translate(148.565341, 17.4409)"><g/></g></g><g fill="#788473" fill-opacity="1"><g transform="translate(163.123043, 17.4409)"><g><path d="M 5.21875 0.125 C 4.414062 0.125 3.695312 -0.015625 3.0625 -0.296875 C 2.425781 -0.585938 1.925781 -0.988281 1.5625 -1.5 C 1.195312 -2.007812 1.007812 -2.597656 1 -3.265625 L 2.703125 -3.265625 C 2.753906 -2.691406 2.988281 -2.207031 3.40625 -1.8125 C 3.820312 -1.414062 4.425781 -1.21875 5.21875 -1.21875 C 5.976562 -1.21875 6.578125 -1.40625 7.015625 -1.78125 C 7.453125 -2.164062 7.671875 -2.660156 7.671875 -3.265625 C 7.671875 -3.722656 7.539062 -4.097656 7.28125 -4.390625 C 7.03125 -4.679688 6.710938 -4.90625 6.328125 -5.0625 C 5.941406 -5.21875 5.421875 -5.378906 4.765625 -5.546875 C 3.960938 -5.765625 3.316406 -5.976562 2.828125 -6.1875 C 2.347656 -6.394531 1.929688 -6.722656 1.578125 -7.171875 C 1.234375 -7.617188 1.0625 -8.222656 1.0625 -8.984375 C 1.0625 -9.648438 1.226562 -10.238281 1.5625 -10.75 C 1.90625 -11.269531 2.382812 -11.664062 3 -11.9375 C 3.613281 -12.21875 4.316406 -12.359375 5.109375 -12.359375 C 6.253906 -12.359375 7.191406 -12.070312 7.921875 -11.5 C 8.648438 -10.9375 9.0625 -10.179688 9.15625 -9.234375 L 7.40625 -9.234375 C 7.351562 -9.703125 7.109375 -10.113281 6.671875 -10.46875 C 6.242188 -10.820312 5.671875 -11 4.953125 -11 C 4.285156 -11 3.742188 -10.828125 3.328125 -10.484375 C 2.910156 -10.140625 2.703125 -9.65625 2.703125 -9.03125 C 2.703125 -8.59375 2.828125 -8.234375 3.078125 -7.953125 C 3.328125 -7.671875 3.632812 -7.457031 4 -7.3125 C 4.363281 -7.164062 4.878906 -7 5.546875 -6.8125 C 6.359375 -6.59375 7.007812 -6.375 7.5 -6.15625 C 7.988281 -5.9375 8.40625 -5.601562 8.75 -5.15625 C 9.101562 -4.707031 9.28125 -4.097656 9.28125 -3.328125 C 9.28125 -2.734375 9.125 -2.171875 8.8125 -1.640625 C 8.5 -1.117188 8.03125 -0.691406 7.40625 -0.359375 C 6.789062 -0.0351562 6.0625 0.125 5.21875 0.125 Z M 5.21875 0.125 "/></g></g></g><g fill="#788473" fill-opacity="1"><g transform="translate(183.28566, 17.4409)"><g><path d="M 8.859375 -12.203125 L 8.859375 -10.90625 L 5.53125 -10.90625 L 5.53125 0 L 3.9375 0 L 3.9375 -10.90625 L 0.59375 -10.90625 L 0.59375 -12.203125 Z M 8.859375 -12.203125 "/></g></g></g><g fill="#788473" fill-opacity="1"><g transform="translate(202.642573, 17.4409)"><g><path d="M 8.5625 -2.71875 L 3.234375 -2.71875 L 2.265625 0 L 0.578125 0 L 4.984375 -12.140625 L 6.828125 -12.140625 L 11.234375 0 L 9.546875 0 Z M 8.109375 -4.015625 L 5.90625 -10.171875 L 3.703125 -4.015625 Z M 8.109375 -4.015625 "/></g></g></g><g fill="#788473" fill-opacity="1"><g transform="translate(224.329018, 17.4409)"><g><path d="M 10.59375 -8.671875 C 10.257812 -9.378906 9.769531 -9.925781 9.125 -10.3125 C 8.476562 -10.707031 7.734375 -10.90625 6.890625 -10.90625 C 6.035156 -10.90625 5.265625 -10.707031 4.578125 -10.3125 C 3.898438 -9.925781 3.363281 -9.367188 2.96875 -8.640625 C 2.570312 -7.910156 2.375 -7.066406 2.375 -6.109375 C 2.375 -5.148438 2.570312 -4.304688 2.96875 -3.578125 C 3.363281 -2.859375 3.898438 -2.300781 4.578125 -1.90625 C 5.265625 -1.519531 6.035156 -1.328125 6.890625 -1.328125 C 8.078125 -1.328125 9.054688 -1.679688 9.828125 -2.390625 C 10.597656 -3.109375 11.046875 -4.078125 11.171875 -5.296875 L 6.3125 -5.296875 L 6.3125 -6.578125 L 12.875 -6.578125 L 12.875 -5.359375 C 12.78125 -4.359375 12.460938 -3.4375 11.921875 -2.59375 C 11.390625 -1.757812 10.6875 -1.097656 9.8125 -0.609375 C 8.9375 -0.128906 7.960938 0.109375 6.890625 0.109375 C 5.753906 0.109375 4.71875 -0.15625 3.78125 -0.6875 C 2.84375 -1.21875 2.101562 -1.957031 1.5625 -2.90625 C 1.019531 -3.851562 0.75 -4.921875 0.75 -6.109375 C 0.75 -7.304688 1.019531 -8.378906 1.5625 -9.328125 C 2.101562 -10.273438 2.84375 -11.015625 3.78125 -11.546875 C 4.71875 -12.078125 5.753906 -12.34375 6.890625 -12.34375 C 8.179688 -12.34375 9.328125 -12.019531 10.328125 -11.375 C 11.328125 -10.738281 12.050781 -9.835938 12.5 -8.671875 Z M 10.59375 -8.671875 "/></g></g></g><g fill="#788473" fill-opacity="1"><g transform="translate(247.83709, 17.4409)"><g><path d="M 2.9375 -12.203125 L 2.9375 0 L 1.34375 0 L 1.34375 -12.203125 Z M 2.9375 -12.203125 "/></g></g></g><g fill="#788473" fill-opacity="1"><g transform="translate(262.026984, 17.4409)"><g><path d="M 10.953125 0 L 9.359375 0 L 2.9375 -9.71875 L 2.9375 0 L 1.34375 0 L 1.34375 -12.21875 L 2.9375 -12.21875 L 9.359375 -2.515625 L 9.359375 -12.21875 L 10.953125 -12.21875 Z M 10.953125 0 "/></g></g></g><g fill="#788473" fill-opacity="1"><g transform="translate(284.221384, 17.4409)"><g><path d="M 10.59375 -8.671875 C 10.257812 -9.378906 9.769531 -9.925781 9.125 -10.3125 C 8.476562 -10.707031 7.734375 -10.90625 6.890625 -10.90625 C 6.035156 -10.90625 5.265625 -10.707031 4.578125 -10.3125 C 3.898438 -9.925781 3.363281 -9.367188 2.96875 -8.640625 C 2.570312 -7.910156 2.375 -7.066406 2.375 -6.109375 C 2.375 -5.148438 2.570312 -4.304688 2.96875 -3.578125 C 3.363281 -2.859375 3.898438 -2.300781 4.578125 -1.90625 C 5.265625 -1.519531 6.035156 -1.328125 6.890625 -1.328125 C 8.078125 -1.328125 9.054688 -1.679688 9.828125 -2.390625 C 10.597656 -3.109375 11.046875 -4.078125 11.171875 -5.296875 L 6.3125 -5.296875 L 6.3125 -6.578125 L 12.875 -6.578125 L 12.875 -5.359375 C 12.78125 -4.359375 12.460938 -3.4375 11.921875 -2.59375 C 11.390625 -1.757812 10.6875 -1.097656 9.8125 -0.609375 C 8.9375 -0.128906 7.960938 0.109375 6.890625 0.109375 C 5.753906 0.109375 4.71875 -0.15625 3.78125 -0.6875 C 2.84375 -1.21875 2.101562 -1.957031 1.5625 -2.90625 C 1.019531 -3.851562 0.75 -4.921875 0.75 -6.109375 C 0.75 -7.304688 1.019531 -8.378906 1.5625 -9.328125 C 2.101562 -10.273438 2.84375 -11.015625 3.78125 -11.546875 C 4.71875 -12.078125 5.753906 -12.34375 6.890625 -12.34375 C 8.179688 -12.34375 9.328125 -12.019531 10.328125 -11.375 C 11.328125 -10.738281 12.050781 -9.835938 12.5 -8.671875 Z M 10.59375 -8.671875 "/></g></g></g><g fill="#788473" fill-opacity="1"><g transform="translate(307.729431, 17.4409)"><g/></g></g><g fill="#788473" fill-opacity="1"><g transform="translate(322.287133, 17.4409)"><g><path d="M 2.9375 -10.90625 L 2.9375 -6.828125 L 7.390625 -6.828125 L 7.390625 -5.515625 L 2.9375 -5.515625 L 2.9375 -1.3125 L 7.921875 -1.3125 L 7.921875 0 L 1.34375 0 L 1.34375 -12.21875 L 7.921875 -12.21875 L 7.921875 -10.90625 Z M 2.9375 -10.90625 "/></g></g></g><g fill="#788473" fill-opacity="1"><g transform="translate(341.153634, 17.4409)"><g><path d="M 2.9375 -1.296875 L 7.21875 -1.296875 L 7.21875 0 L 1.34375 0 L 1.34375 -12.203125 L 2.9375 -12.203125 Z M 2.9375 -1.296875 "/></g></g></g><g fill="#788473" fill-opacity="1"><g transform="translate(358.601354, 17.4409)"><g><path d="M 2.9375 -10.90625 L 2.9375 -6.828125 L 7.390625 -6.828125 L 7.390625 -5.515625 L 2.9375 -5.515625 L 2.9375 -1.3125 L 7.921875 -1.3125 L 7.921875 0 L 1.34375 0 L 1.34375 -12.21875 L 7.921875 -12.21875 L 7.921875 -10.90625 Z M 2.9375 -10.90625 "/></g></g></g><g fill="#788473" fill-opacity="1"><g transform="translate(377.467854, 17.4409)"><g><path d="M 11.4375 -12.203125 L 6.828125 0 L 4.984375 0 L 0.390625 -12.203125 L 2.078125 -12.203125 L 5.921875 -1.6875 L 9.75 -12.203125 Z M 11.4375 -12.203125 "/></g></g></g><g fill="#788473" fill-opacity="1"><g transform="translate(399.189361, 17.4409)"><g><path d="M 8.5625 -2.71875 L 3.234375 -2.71875 L 2.265625 0 L 0.578125 0 L 4.984375 -12.140625 L 6.828125 -12.140625 L 11.234375 0 L 9.546875 0 Z M 8.109375 -4.015625 L 5.90625 -10.171875 L 3.703125 -4.015625 Z M 8.109375 -4.015625 "/></g></g></g><g fill="#788473" fill-opacity="1"><g transform="translate(420.875807, 17.4409)"><g><path d="M 8.859375 -12.203125 L 8.859375 -10.90625 L 5.53125 -10.90625 L 5.53125 0 L 3.9375 0 L 3.9375 -10.90625 L 0.59375 -10.90625 L 0.59375 -12.203125 Z M 8.859375 -12.203125 "/></g></g></g><g fill="#788473" fill-opacity="1"><g transform="translate(440.232745, 17.4409)"><g><path d="M 2.9375 -10.90625 L 2.9375 -6.828125 L 7.390625 -6.828125 L 7.390625 -5.515625 L 2.9375 -5.515625 L 2.9375 -1.3125 L 7.921875 -1.3125 L 7.921875 0 L 1.34375 0 L 1.34375 -12.21875 L 7.921875 -12.21875 L 7.921875 -10.90625 Z M 2.9375 -10.90625 "/></g></g></g><g fill="#788473" fill-opacity="1"><g transform="translate(459.099221, 17.4409)"><g><path d="M 5.15625 -12.203125 C 6.476562 -12.203125 7.628906 -11.953125 8.609375 -11.453125 C 9.585938 -10.960938 10.332031 -10.253906 10.84375 -9.328125 C 11.363281 -8.410156 11.625 -7.328125 11.625 -6.078125 C 11.625 -4.828125 11.363281 -3.742188 10.84375 -2.828125 C 10.332031 -1.910156 9.585938 -1.207031 8.609375 -0.71875 C 7.628906 -0.238281 6.476562 0 5.15625 0 L 1.34375 0 L 1.34375 -12.203125 Z M 5.15625 -1.3125 C 6.726562 -1.3125 7.925781 -1.726562 8.75 -2.5625 C 9.582031 -3.394531 10 -4.566406 10 -6.078125 C 10 -7.597656 9.582031 -8.78125 8.75 -9.625 C 7.914062 -10.476562 6.71875 -10.90625 5.15625 -10.90625 L 2.9375 -10.90625 L 2.9375 -1.3125 Z M 5.15625 -1.3125 "/></g></g></g><g fill="#788473" fill-opacity="1"><g transform="translate(481.363694, 17.4409)"><g/></g></g><g fill="#788473" fill-opacity="1"><g transform="translate(495.921372, 17.4409)"><g><path d="M 5.15625 -12.203125 C 6.476562 -12.203125 7.628906 -11.953125 8.609375 -11.453125 C 9.585938 -10.960938 10.332031 -10.253906 10.84375 -9.328125 C 11.363281 -8.410156 11.625 -7.328125 11.625 -6.078125 C 11.625 -4.828125 11.363281 -3.742188 10.84375 -2.828125 C 10.332031 -1.910156 9.585938 -1.207031 8.609375 -0.71875 C 7.628906 -0.238281 6.476562 0 5.15625 0 L 1.34375 0 L 1.34375 -12.203125 Z M 5.15625 -1.3125 C 6.726562 -1.3125 7.925781 -1.726562 8.75 -2.5625 C 9.582031 -3.394531 10 -4.566406 10 -6.078125 C 10 -7.597656 9.582031 -8.78125 8.75 -9.625 C 7.914062 -10.476562 6.71875 -10.90625 5.15625 -10.90625 L 2.9375 -10.90625 L 2.9375 -1.3125 Z M 5.15625 -1.3125 "/></g></g></g><g fill="#788473" fill-opacity="1"><g transform="translate(518.185845, 17.4409)"><g><path d="M 2.9375 -10.90625 L 2.9375 -6.828125 L 7.390625 -6.828125 L 7.390625 -5.515625 L 2.9375 -5.515625 L 2.9375 -1.3125 L 7.921875 -1.3125 L 7.921875 0 L 1.34375 0 L 1.34375 -12.21875 L 7.921875 -12.21875 L 7.921875 -10.90625 Z M 2.9375 -10.90625 "/></g></g></g><g fill="#788473" fill-opacity="1"><g transform="translate(537.052321, 17.4409)"><g><path d="M 5.21875 0.125 C 4.414062 0.125 3.695312 -0.015625 3.0625 -0.296875 C 2.425781 -0.585938 1.925781 -0.988281 1.5625 -1.5 C 1.195312 -2.007812 1.007812 -2.597656 1 -3.265625 L 2.703125 -3.265625 C 2.753906 -2.691406 2.988281 -2.207031 3.40625 -1.8125 C 3.820312 -1.414062 4.425781 -1.21875 5.21875 -1.21875 C 5.976562 -1.21875 6.578125 -1.40625 7.015625 -1.78125 C 7.453125 -2.164062 7.671875 -2.660156 7.671875 -3.265625 C 7.671875 -3.722656 7.539062 -4.097656 7.28125 -4.390625 C 7.03125 -4.679688 6.710938 -4.90625 6.328125 -5.0625 C 5.941406 -5.21875 5.421875 -5.378906 4.765625 -5.546875 C 3.960938 -5.765625 3.316406 -5.976562 2.828125 -6.1875 C 2.347656 -6.394531 1.929688 -6.722656 1.578125 -7.171875 C 1.234375 -7.617188 1.0625 -8.222656 1.0625 -8.984375 C 1.0625 -9.648438 1.226562 -10.238281 1.5625 -10.75 C 1.90625 -11.269531 2.382812 -11.664062 3 -11.9375 C 3.613281 -12.21875 4.316406 -12.359375 5.109375 -12.359375 C 6.253906 -12.359375 7.191406 -12.070312 7.921875 -11.5 C 8.648438 -10.9375 9.0625 -10.179688 9.15625 -9.234375 L 7.40625 -9.234375 C 7.351562 -9.703125 7.109375 -10.113281 6.671875 -10.46875 C 6.242188 -10.820312 5.671875 -11 4.953125 -11 C 4.285156 -11 3.742188 -10.828125 3.328125 -10.484375 C 2.910156 -10.140625 2.703125 -9.65625 2.703125 -9.03125 C 2.703125 -8.59375 2.828125 -8.234375 3.078125 -7.953125 C 3.328125 -7.671875 3.632812 -7.457031 4 -7.3125 C 4.363281 -7.164062 4.878906 -7 5.546875 -6.8125 C 6.359375 -6.59375 7.007812 -6.375 7.5 -6.15625 C 7.988281 -5.9375 8.40625 -5.601562 8.75 -5.15625 C 9.101562 -4.707031 9.28125 -4.097656 9.28125 -3.328125 C 9.28125 -2.734375 9.125 -2.171875 8.8125 -1.640625 C 8.5 -1.117188 8.03125 -0.691406 7.40625 -0.359375 C 6.789062 -0.0351562 6.0625 0.125 5.21875 0.125 Z M 5.21875 0.125 "/></g></g></g><g fill="#788473" fill-opacity="1"><g transform="translate(557.214951, 17.4409)"><g><path d="M 2.9375 -12.203125 L 2.9375 0 L 1.34375 0 L 1.34375 -12.203125 Z M 2.9375 -12.203125 "/></g></g></g><g fill="#788473" fill-opacity="1"><g transform="translate(571.404819, 17.4409)"><g><path d="M 10.59375 -8.671875 C 10.257812 -9.378906 9.769531 -9.925781 9.125 -10.3125 C 8.476562 -10.707031 7.734375 -10.90625 6.890625 -10.90625 C 6.035156 -10.90625 5.265625 -10.707031 4.578125 -10.3125 C 3.898438 -9.925781 3.363281 -9.367188 2.96875 -8.640625 C 2.570312 -7.910156 2.375 -7.066406 2.375 -6.109375 C 2.375 -5.148438 2.570312 -4.304688 2.96875 -3.578125 C 3.363281 -2.859375 3.898438 -2.300781 4.578125 -1.90625 C 5.265625 -1.519531 6.035156 -1.328125 6.890625 -1.328125 C 8.078125 -1.328125 9.054688 -1.679688 9.828125 -2.390625 C 10.597656 -3.109375 11.046875 -4.078125 11.171875 -5.296875 L 6.3125 -5.296875 L 6.3125 -6.578125 L 12.875 -6.578125 L 12.875 -5.359375 C 12.78125 -4.359375 12.460938 -3.4375 11.921875 -2.59375 C 11.390625 -1.757812 10.6875 -1.097656 9.8125 -0.609375 C 8.9375 -0.128906 7.960938 0.109375 6.890625 0.109375 C 5.753906 0.109375 4.71875 -0.15625 3.78125 -0.6875 C 2.84375 -1.21875 2.101562 -1.957031 1.5625 -2.90625 C 1.019531 -3.851562 0.75 -4.921875 0.75 -6.109375 C 0.75 -7.304688 1.019531 -8.378906 1.5625 -9.328125 C 2.101562 -10.273438 2.84375 -11.015625 3.78125 -11.546875 C 4.71875 -12.078125 5.753906 -12.34375 6.890625 -12.34375 C 8.179688 -12.34375 9.328125 -12.019531 10.328125 -11.375 C 11.328125 -10.738281 12.050781 -9.835938 12.5 -8.671875 Z M 10.59375 -8.671875 "/></g></g></g><g fill="#788473" fill-opacity="1"><g transform="translate(594.912866, 17.4409)"><g><path d="M 10.953125 0 L 9.359375 0 L 2.9375 -9.71875 L 2.9375 0 L 1.34375 0 L 1.34375 -12.21875 L 2.9375 -12.21875 L 9.359375 -2.515625 L 9.359375 -12.21875 L 10.953125 -12.21875 Z M 10.953125 0 "/></g></g></g></g></g><g transform="matrix(1, 0, 0, 1, 446, 798)"><g clip-path="url(#a417bf794f)"><g fill="#967f71" fill-opacity="1"><g transform="translate(0.574867, 69.06228)"><g><path d="M 4.375 0 L 4.375 -1.109375 C 5.695312 -1.515625 6.597656 -2.375 7.078125 -3.6875 C 7.566406 -5.007812 7.8125 -7.414062 7.8125 -10.90625 L 7.8125 -49.1875 C 7.8125 -52.738281 7.566406 -55.15625 7.078125 -56.4375 C 6.597656 -57.726562 5.695312 -58.570312 4.375 -58.96875 L 4.375 -60.09375 L 18.28125 -60.09375 L 18.28125 -58.96875 C 16.96875 -58.570312 16.066406 -57.726562 15.578125 -56.4375 C 15.085938 -55.15625 14.84375 -52.738281 14.84375 -49.1875 L 14.84375 -32.53125 L 47.5625 -32.53125 L 47.5625 -49.1875 C 47.5625 -52.738281 47.316406 -55.15625 46.828125 -56.4375 C 46.335938 -57.726562 45.4375 -58.570312 44.125 -58.96875 L 44.125 -60.09375 L 58.03125 -60.09375 L 58.03125 -58.96875 C 56.71875 -58.570312 55.816406 -57.726562 55.328125 -56.4375 C 54.835938 -55.15625 54.59375 -52.738281 54.59375 -49.1875 L 54.59375 -10.90625 C 54.59375 -7.414062 54.835938 -5.007812 55.328125 -3.6875 C 55.816406 -2.375 56.71875 -1.515625 58.03125 -1.109375 L 58.03125 0 L 44.125 0 L 44.125 -1.109375 C 45.4375 -1.515625 46.335938 -2.375 46.828125 -3.6875 C 47.316406 -5.007812 47.5625 -7.414062 47.5625 -10.90625 L 47.5625 -31.15625 L 14.84375 -31.15625 L 14.84375 -10.90625 C 14.84375 -7.414062 15.085938 -5.007812 15.578125 -3.6875 C 16.066406 -2.375 16.96875 -1.515625 18.28125 -1.109375 L 18.28125 0 Z M 4.375 0 "/></g></g></g><g fill="#967f71" fill-opacity="1"><g transform="translate(62.888366, 69.06228)"><g><path d="M 35.03125 0.859375 C 31.363281 0.859375 27.726562 0.242188 24.125 -0.984375 C 20.519531 -2.210938 17.226562 -4.097656 14.25 -6.640625 C 11.269531 -9.191406 8.894531 -12.410156 7.125 -16.296875 C 5.351562 -20.191406 4.46875 -24.800781 4.46875 -30.125 C 4.46875 -36.019531 5.753906 -41.269531 8.328125 -45.875 C 10.898438 -50.488281 14.472656 -54.125 19.046875 -56.78125 C 23.628906 -59.445312 28.957031 -60.78125 35.03125 -60.78125 C 38.632812 -60.78125 42.238281 -60.148438 45.84375 -58.890625 C 49.445312 -57.628906 52.722656 -55.722656 55.671875 -53.171875 C 58.617188 -50.628906 60.976562 -47.410156 62.75 -43.515625 C 64.519531 -39.628906 65.40625 -35.050781 65.40625 -29.78125 C 65.40625 -24.457031 64.519531 -19.878906 62.75 -16.046875 C 60.976562 -12.210938 58.601562 -9.035156 55.625 -6.515625 C 52.644531 -4.003906 49.367188 -2.144531 45.796875 -0.9375 C 42.222656 0.257812 38.632812 0.859375 35.03125 0.859375 Z M 11.328125 -35.109375 C 11.503906 -30.816406 12.289062 -26.648438 13.6875 -22.609375 C 15.09375 -18.578125 17.007812 -14.957031 19.4375 -11.75 C 21.875 -8.550781 24.722656 -6.003906 27.984375 -4.109375 C 31.242188 -2.222656 34.789062 -1.28125 38.625 -1.28125 C 43.207031 -1.28125 47.015625 -2.28125 50.046875 -4.28125 C 53.078125 -6.289062 55.320312 -9.023438 56.78125 -12.484375 C 58.238281 -15.953125 58.882812 -19.832031 58.71875 -24.125 C 58.539062 -28.582031 57.75 -32.882812 56.34375 -37.03125 C 54.945312 -41.1875 53.046875 -44.894531 50.640625 -48.15625 C 48.242188 -51.414062 45.410156 -54.003906 42.140625 -55.921875 C 38.878906 -57.835938 35.332031 -58.796875 31.5 -58.796875 C 27.15625 -58.796875 23.453125 -57.796875 20.390625 -55.796875 C 17.328125 -53.796875 15.007812 -51.019531 13.4375 -47.46875 C 11.863281 -43.925781 11.160156 -39.804688 11.328125 -35.109375 Z M 11.328125 -35.109375 "/></g></g></g><g fill="#967f71" fill-opacity="1"><g transform="translate(132.669182, 69.06228)"><g><path d="M 4.296875 0 L 4.296875 -1.109375 C 5.609375 -1.515625 6.503906 -2.375 6.984375 -3.6875 C 7.472656 -5.007812 7.71875 -7.414062 7.71875 -10.90625 L 7.71875 -45.75 C 7.71875 -49.007812 7.519531 -51.539062 7.125 -53.34375 C 6.726562 -55.15625 6.140625 -56.457031 5.359375 -57.25 C 4.585938 -58.050781 3.628906 -58.625 2.484375 -58.96875 L 2.484375 -60.09375 L 12.875 -60.09375 L 35.28125 -23.09375 L 57.265625 -60.09375 L 66.953125 -60.09375 L 66.953125 -58.96875 C 65.804688 -58.625 64.847656 -58.050781 64.078125 -57.25 C 63.304688 -56.457031 62.71875 -55.15625 62.3125 -53.34375 C 61.914062 -51.539062 61.71875 -49.007812 61.71875 -45.75 L 61.71875 -10.90625 C 61.71875 -7.414062 61.960938 -5.007812 62.453125 -3.6875 C 62.941406 -2.375 63.84375 -1.515625 65.15625 -1.109375 L 65.15625 0 L 51.25 0 L 51.25 -1.109375 C 52.5625 -1.515625 53.460938 -2.375 53.953125 -3.6875 C 54.441406 -5.007812 54.6875 -7.414062 54.6875 -10.90625 L 54.6875 -53.140625 L 32.875 -16.3125 L 31.25 -16.3125 L 9.265625 -52.453125 L 9.265625 -14.328125 C 9.265625 -11.066406 9.492188 -8.550781 9.953125 -6.78125 C 10.410156 -5.007812 11.066406 -3.707031 11.921875 -2.875 C 12.785156 -2.039062 13.847656 -1.453125 15.109375 -1.109375 L 15.109375 0 Z M 4.296875 0 "/></g></g></g><g fill="#967f71" fill-opacity="1"><g transform="translate(203.994954, 69.06228)"><g><path d="M 4.375 0 L 4.375 -1.109375 C 5.695312 -1.515625 6.597656 -2.375 7.078125 -3.6875 C 7.566406 -5.007812 7.8125 -7.414062 7.8125 -10.90625 L 7.8125 -49.1875 C 7.8125 -52.738281 7.566406 -55.15625 7.078125 -56.4375 C 6.597656 -57.726562 5.695312 -58.570312 4.375 -58.96875 L 4.375 -60.09375 L 44.296875 -60.09375 L 45.234375 -48.9375 L 44.296875 -48.671875 C 42.804688 -52.453125 40.726562 -55.082031 38.0625 -56.5625 C 35.40625 -58.050781 31.875 -58.796875 27.46875 -58.796875 L 14.84375 -58.796875 L 14.84375 -32.796875 L 25.84375 -32.796875 C 29.101562 -32.796875 31.632812 -33.007812 33.4375 -33.4375 C 35.238281 -33.863281 36.550781 -34.519531 37.375 -35.40625 C 38.207031 -36.289062 38.796875 -37.363281 39.140625 -38.625 L 40.171875 -38.625 L 40.171875 -25.671875 L 39.140625 -25.671875 C 38.796875 -26.984375 38.207031 -28.066406 37.375 -28.921875 C 36.550781 -29.785156 35.238281 -30.429688 33.4375 -30.859375 C 31.632812 -31.285156 29.101562 -31.5 25.84375 -31.5 L 14.84375 -31.5 L 14.84375 -5.15625 C 14.84375 -2.570312 16.132812 -1.28125 18.71875 -1.28125 L 29.875 -1.28125 C 33.988281 -1.28125 37.390625 -1.992188 40.078125 -3.421875 C 42.773438 -4.859375 44.894531 -7.582031 46.4375 -11.59375 L 47.390625 -11.421875 L 46.703125 0 Z M 4.375 0 "/></g></g></g><g fill="#967f71" fill-opacity="1"><g transform="translate(254.54958, 69.06228)"><g/></g></g><g fill="#967f71" fill-opacity="1"><g transform="translate(272.574125, 69.06228)"><g><path d="M 24.46875 0.859375 C 19.945312 0.859375 15.882812 0.203125 12.28125 -1.109375 C 8.675781 -2.429688 5.867188 -3.804688 3.859375 -5.234375 L 3.4375 -17.171875 L 4.375 -17.34375 C 5.519531 -14.363281 7.019531 -11.597656 8.875 -9.046875 C 10.738281 -6.503906 13.101562 -4.472656 15.96875 -2.953125 C 18.832031 -1.441406 22.238281 -0.6875 26.1875 -0.6875 C 28.46875 -0.6875 30.582031 -1.15625 32.53125 -2.09375 C 34.476562 -3.039062 36.035156 -4.375 37.203125 -6.09375 C 38.378906 -7.8125 38.96875 -9.816406 38.96875 -12.109375 C 38.96875 -14.273438 38.394531 -16.160156 37.25 -17.765625 C 36.113281 -19.367188 34.628906 -20.769531 32.796875 -21.96875 C 30.960938 -23.175781 29.03125 -24.222656 27 -25.109375 C 24.96875 -25.992188 23.035156 -26.8125 21.203125 -27.5625 C 17.828125 -28.925781 14.894531 -30.3125 12.40625 -31.71875 C 9.914062 -33.125 8 -34.8125 6.65625 -36.78125 C 5.3125 -38.757812 4.640625 -41.265625 4.640625 -44.296875 C 4.640625 -47.671875 5.507812 -50.570312 7.25 -53 C 9 -55.4375 11.445312 -57.328125 14.59375 -58.671875 C 17.738281 -60.015625 21.398438 -60.6875 25.578125 -60.6875 C 29.472656 -60.6875 32.820312 -60.253906 35.625 -59.390625 C 38.425781 -58.535156 40.660156 -57.65625 42.328125 -56.75 L 42.671875 -46.78125 L 41.8125 -46.53125 C 40.207031 -50.25 37.875 -53.304688 34.8125 -55.703125 C 31.75 -58.109375 27.753906 -59.3125 22.828125 -59.3125 C 20.546875 -59.3125 18.414062 -58.867188 16.4375 -57.984375 C 14.46875 -57.097656 12.894531 -55.820312 11.71875 -54.15625 C 10.539062 -52.5 9.953125 -50.441406 9.953125 -47.984375 C 9.953125 -45.984375 10.4375 -44.238281 11.40625 -42.75 C 12.382812 -41.257812 13.675781 -39.96875 15.28125 -38.875 C 16.882812 -37.789062 18.628906 -36.832031 20.515625 -36 C 22.398438 -35.175781 24.257812 -34.394531 26.09375 -33.65625 C 29.300781 -32.394531 32.304688 -31.046875 35.109375 -29.609375 C 37.910156 -28.179688 40.179688 -26.4375 41.921875 -24.375 C 43.671875 -22.320312 44.546875 -19.660156 44.546875 -16.390625 C 44.546875 -12.847656 43.570312 -9.773438 41.625 -7.171875 C 39.6875 -4.566406 37.1875 -2.578125 34.125 -1.203125 C 31.0625 0.171875 27.84375 0.859375 24.46875 0.859375 Z M 24.46875 0.859375 "/></g></g></g><g fill="#967f71" fill-opacity="1"><g transform="translate(319.867153, 69.06228)"><g><path d="M 17.078125 0 L 17.078125 -1.109375 C 18.398438 -1.515625 19.300781 -2.375 19.78125 -3.6875 C 20.269531 -5.007812 20.515625 -7.414062 20.515625 -10.90625 L 20.515625 -58.71875 L 16.3125 -58.71875 C 12.476562 -58.71875 9.554688 -58.113281 7.546875 -56.90625 C 5.546875 -55.707031 3.800781 -53.5625 2.3125 -50.46875 L 1.375 -50.640625 L 1.890625 -60.09375 L 46.09375 -60.09375 L 46.609375 -50.640625 L 45.671875 -50.46875 C 44.234375 -53.5625 42.515625 -55.707031 40.515625 -56.90625 C 38.515625 -58.113281 35.566406 -58.71875 31.671875 -58.71875 L 27.640625 -58.71875 L 27.640625 -10.90625 C 27.640625 -7.414062 27.878906 -5.007812 28.359375 -3.6875 C 28.847656 -2.375 29.753906 -1.515625 31.078125 -1.109375 L 31.078125 0 Z M 17.078125 0 "/></g></g></g><g fill="#967f71" fill-opacity="1"><g transform="translate(367.932691, 69.06228)"><g><path d="M 16.21875 0 L 16.21875 -1.109375 C 17.539062 -1.515625 18.441406 -2.375 18.921875 -3.6875 C 19.410156 -5.007812 19.628906 -7.414062 19.578125 -10.90625 L 19.578125 -27.046875 L 6.609375 -50.5625 C 4.953125 -53.59375 3.492188 -55.648438 2.234375 -56.734375 C 0.972656 -57.828125 -0.113281 -58.570312 -1.03125 -58.96875 L -1.03125 -60.09375 L 12.53125 -60.09375 L 12.53125 -58.96875 C 11.269531 -58.570312 10.835938 -57.828125 11.234375 -56.734375 C 11.640625 -55.648438 12.703125 -53.59375 14.421875 -50.5625 L 26.359375 -29.265625 L 38.375 -50.5625 C 39.863281 -53.195312 40.609375 -55.1875 40.609375 -56.53125 C 40.609375 -57.875 39.773438 -58.6875 38.109375 -58.96875 L 38.109375 -60.09375 L 48.328125 -60.09375 L 48.328125 -58.96875 C 47.179688 -58.570312 45.921875 -57.828125 44.546875 -56.734375 C 43.179688 -55.648438 41.640625 -53.59375 39.921875 -50.5625 L 26.78125 -27.21875 L 26.78125 -10.90625 C 26.78125 -7.414062 27.023438 -5.007812 27.515625 -3.6875 C 28.003906 -2.375 28.90625 -1.515625 30.21875 -1.109375 L 30.21875 0 Z M 16.21875 0 "/></g></g></g><g fill="#967f71" fill-opacity="1"><g transform="translate(415.139857, 69.06228)"><g><path d="M 4.375 0 L 4.375 -1.109375 C 5.695312 -1.515625 6.597656 -2.375 7.078125 -3.6875 C 7.566406 -5.007812 7.8125 -7.414062 7.8125 -10.90625 L 7.8125 -49.1875 C 7.8125 -52.738281 7.566406 -55.15625 7.078125 -56.4375 C 6.597656 -57.726562 5.695312 -58.570312 4.375 -58.96875 L 4.375 -60.09375 L 18.28125 -60.09375 L 18.28125 -58.96875 C 16.96875 -58.570312 16.066406 -57.726562 15.578125 -56.4375 C 15.085938 -55.15625 14.84375 -52.738281 14.84375 -49.1875 L 14.84375 -5.234375 C 14.84375 -2.660156 16.132812 -1.375 18.71875 -1.375 L 28.921875 -1.375 C 33.046875 -1.375 36.207031 -1.988281 38.40625 -3.21875 C 40.613281 -4.445312 42.460938 -6.664062 43.953125 -9.875 L 44.890625 -9.703125 L 44.296875 0 Z M 4.375 0 "/></g></g></g><g fill="#967f71" fill-opacity="1"><g transform="translate(461.746238, 69.06228)"><g><path d="M 4.375 0 L 4.375 -1.109375 C 5.695312 -1.515625 6.597656 -2.375 7.078125 -3.6875 C 7.566406 -5.007812 7.8125 -7.414062 7.8125 -10.90625 L 7.8125 -49.1875 C 7.8125 -52.738281 7.566406 -55.15625 7.078125 -56.4375 C 6.597656 -57.726562 5.695312 -58.570312 4.375 -58.96875 L 4.375 -60.09375 L 18.28125 -60.09375 L 18.28125 -58.96875 C 16.96875 -58.570312 16.066406 -57.726562 15.578125 -56.4375 C 15.085938 -55.15625 14.84375 -52.738281 14.84375 -49.1875 L 14.84375 -10.90625 C 14.84375 -7.414062 15.085938 -5.007812 15.578125 -3.6875 C 16.066406 -2.375 16.96875 -1.515625 18.28125 -1.109375 L 18.28125 0 Z M 4.375 0 "/></g></g></g><g fill="#967f71" fill-opacity="1"><g transform="translate(484.405688, 69.06228)"><g><path d="M 49.703125 0.6875 L 9.265625 -51.9375 L 9.265625 -14.328125 C 9.265625 -11.066406 9.492188 -8.550781 9.953125 -6.78125 C 10.410156 -5.007812 11.082031 -3.707031 11.96875 -2.875 C 12.863281 -2.039062 13.9375 -1.453125 15.1875 -1.109375 L 15.1875 0 L 4.46875 0 L 4.46875 -1.109375 C 5.78125 -1.515625 6.675781 -2.375 7.15625 -3.6875 C 7.644531 -5.007812 7.890625 -7.414062 7.890625 -10.90625 L 7.890625 -49.1875 C 7.890625 -52.738281 7.578125 -55.15625 6.953125 -56.4375 C 6.328125 -57.726562 5.15625 -58.570312 3.4375 -58.96875 L 3.4375 -60.09375 L 11.84375 -60.09375 L 49.359375 -11.5 L 49.359375 -45.75 C 49.359375 -49.007812 49.128906 -51.539062 48.671875 -53.34375 C 48.210938 -55.15625 47.550781 -56.457031 46.6875 -57.25 C 45.832031 -58.050781 44.75 -58.625 43.4375 -58.96875 L 43.4375 -60.09375 L 54.25 -60.09375 L 54.25 -58.96875 C 52.9375 -58.570312 52.035156 -57.726562 51.546875 -56.4375 C 51.054688 -55.15625 50.8125 -52.738281 50.8125 -49.1875 L 50.8125 0.6875 Z M 49.703125 0.6875 "/></g></g></g><g fill="#967f71" fill-opacity="1"><g transform="translate(542.084282, 69.06228)"><g><path d="M 36.046875 0.859375 C 29.703125 0.859375 24.15625 -0.398438 19.40625 -2.921875 C 14.65625 -5.441406 10.976562 -8.972656 8.375 -13.515625 C 5.769531 -18.066406 4.46875 -23.429688 4.46875 -29.609375 C 4.46875 -33.898438 5.222656 -37.9375 6.734375 -41.71875 C 8.253906 -45.5 10.398438 -48.804688 13.171875 -51.640625 C 15.953125 -54.472656 19.257812 -56.6875 23.09375 -58.28125 C 26.925781 -59.882812 31.132812 -60.6875 35.71875 -60.6875 C 38.289062 -60.6875 40.820312 -60.472656 43.3125 -60.046875 C 45.800781 -59.617188 48.070312 -59.0625 50.125 -58.375 C 52.1875 -57.6875 53.765625 -56.972656 54.859375 -56.234375 L 55.203125 -46.09375 L 54.34375 -45.921875 C 53.3125 -48.390625 51.765625 -50.625 49.703125 -52.625 C 47.640625 -54.625 45.21875 -56.207031 42.4375 -57.375 C 39.664062 -58.550781 36.59375 -59.140625 33.21875 -59.140625 C 29.101562 -59.140625 25.410156 -58.207031 22.140625 -56.34375 C 18.878906 -54.488281 16.289062 -51.757812 14.375 -48.15625 C 12.457031 -44.550781 11.472656 -40.117188 11.421875 -34.859375 C 11.359375 -30.785156 11.925781 -26.742188 13.125 -22.734375 C 14.332031 -18.734375 16.125 -15.070312 18.5 -11.75 C 20.875 -8.4375 23.75 -5.789062 27.125 -3.8125 C 30.5 -1.84375 34.363281 -0.859375 38.71875 -0.859375 C 41.914062 -0.859375 44.800781 -1.613281 47.375 -3.125 C 49.957031 -4.644531 51.789062 -6.460938 52.875 -8.578125 L 52.796875 -17.34375 C 52.796875 -20.03125 52.519531 -21.972656 51.96875 -23.171875 C 51.425781 -24.378906 50.242188 -25.210938 48.421875 -25.671875 L 48.421875 -26.703125 L 59.65625 -26.703125 L 59.65625 -10.5625 C 58 -8.269531 55.867188 -6.265625 53.265625 -4.546875 C 50.660156 -2.828125 47.867188 -1.492188 44.890625 -0.546875 C 41.921875 0.390625 38.972656 0.859375 36.046875 0.859375 Z M 36.046875 0.859375 "/></g></g></g></g></g><g transform="matrix(1, 0, 0, 1, 580, 712)"><g clip-path="url(#3aab482070)"><g clip-path="url(#19f71dc1dd)"><g transform="matrix(1, 0, 0, 1, 77, 0.000000000000113687)"><g clip-path="url(#98dc131d42)"><g fill="#967f71" fill-opacity="1"><g transform="translate(0.957534, 69.900618)"><g><path d="M 4.46875 -20.671875 L 4.46875 -22.046875 L 26.859375 -22.046875 L 26.859375 -20.671875 Z M 4.46875 -20.671875 "/></g></g></g><g fill="#967f71" fill-opacity="1"><g transform="translate(45.830034, 69.900618)"><g><path d="M 4.375 0 L 4.375 -1.109375 C 5.6875 -1.515625 6.585938 -2.375 7.078125 -3.6875 C 7.566406 -5 7.8125 -7.398438 7.8125 -10.890625 L 7.8125 -49.15625 C 7.8125 -52.707031 7.566406 -55.125 7.078125 -56.40625 C 6.585938 -57.695312 5.6875 -58.539062 4.375 -58.9375 L 4.375 -60.0625 L 18.28125 -60.0625 L 18.28125 -58.9375 C 16.957031 -58.539062 16.050781 -57.695312 15.5625 -56.40625 C 15.082031 -55.125 14.84375 -52.707031 14.84375 -49.15625 L 14.84375 -5.234375 C 14.84375 -2.660156 16.128906 -1.375 18.703125 -1.375 L 28.90625 -1.375 C 33.03125 -1.375 36.191406 -1.988281 38.390625 -3.21875 C 40.597656 -4.445312 42.441406 -6.660156 43.921875 -9.859375 L 44.875 -9.6875 L 44.265625 0 Z M 4.375 0 "/></g></g></g><g fill="#967f71" fill-opacity="1"><g transform="translate(105.972429, 69.900618)"><g><path d="M 4.375 0 L 4.375 -1.109375 C 5.6875 -1.515625 6.585938 -2.375 7.078125 -3.6875 C 7.566406 -5 7.8125 -7.398438 7.8125 -10.890625 L 7.8125 -49.15625 C 7.8125 -52.707031 7.566406 -55.125 7.078125 -56.40625 C 6.585938 -57.695312 5.6875 -58.539062 4.375 -58.9375 L 4.375 -60.0625 L 18.28125 -60.0625 L 18.28125 -58.9375 C 16.957031 -58.539062 16.050781 -57.695312 15.5625 -56.40625 C 15.082031 -55.125 14.84375 -52.707031 14.84375 -49.15625 L 14.84375 -10.890625 C 14.84375 -7.398438 15.082031 -5 15.5625 -3.6875 C 16.050781 -2.375 16.957031 -1.515625 18.28125 -1.109375 L 18.28125 0 Z M 4.375 0 "/></g></g></g><g fill="#967f71" fill-opacity="1"><g transform="translate(142.178608, 69.900618)"><g><path d="M 24.453125 0.859375 C 19.929688 0.859375 15.867188 0.203125 12.265625 -1.109375 C 8.660156 -2.429688 5.859375 -3.804688 3.859375 -5.234375 L 3.4375 -17.15625 L 4.375 -17.328125 C 5.519531 -14.359375 7.019531 -11.597656 8.875 -9.046875 C 10.738281 -6.503906 13.097656 -4.472656 15.953125 -2.953125 C 18.816406 -1.441406 22.222656 -0.6875 26.171875 -0.6875 C 28.453125 -0.6875 30.566406 -1.15625 32.515625 -2.09375 C 34.460938 -3.039062 36.019531 -4.375 37.1875 -6.09375 C 38.363281 -7.8125 38.953125 -9.8125 38.953125 -12.09375 C 38.953125 -14.269531 38.378906 -16.15625 37.234375 -17.75 C 36.085938 -19.351562 34.597656 -20.753906 32.765625 -21.953125 C 30.941406 -23.160156 29.015625 -24.207031 26.984375 -25.09375 C 24.953125 -25.976562 23.019531 -26.796875 21.1875 -27.546875 C 17.8125 -28.910156 14.878906 -30.289062 12.390625 -31.6875 C 9.910156 -33.09375 8 -34.78125 6.65625 -36.75 C 5.3125 -38.726562 4.640625 -41.234375 4.640625 -44.265625 C 4.640625 -47.640625 5.507812 -50.539062 7.25 -52.96875 C 8.988281 -55.40625 11.429688 -57.296875 14.578125 -58.640625 C 17.722656 -59.984375 21.382812 -60.65625 25.5625 -60.65625 C 29.457031 -60.65625 32.804688 -60.222656 35.609375 -59.359375 C 38.410156 -58.503906 40.640625 -57.625 42.296875 -56.71875 L 42.640625 -46.765625 L 41.78125 -46.5 C 40.175781 -50.21875 37.84375 -53.273438 34.78125 -55.671875 C 31.726562 -58.078125 27.742188 -59.28125 22.828125 -59.28125 C 20.535156 -59.28125 18.398438 -58.835938 16.421875 -57.953125 C 14.453125 -57.066406 12.878906 -55.796875 11.703125 -54.140625 C 10.535156 -52.484375 9.953125 -50.421875 9.953125 -47.953125 C 9.953125 -45.953125 10.4375 -44.207031 11.40625 -42.71875 C 12.382812 -41.238281 13.671875 -39.953125 15.265625 -38.859375 C 16.867188 -37.773438 18.613281 -36.816406 20.5 -35.984375 C 22.394531 -35.160156 24.253906 -34.375 26.078125 -33.625 C 29.285156 -32.375 32.289062 -31.03125 35.09375 -29.59375 C 37.894531 -28.164062 40.164062 -26.421875 41.90625 -24.359375 C 43.65625 -22.304688 44.53125 -19.648438 44.53125 -16.390625 C 44.53125 -12.835938 43.554688 -9.757812 41.609375 -7.15625 C 39.660156 -4.5625 37.15625 -2.578125 34.09375 -1.203125 C 31.039062 0.171875 27.828125 0.859375 24.453125 0.859375 Z M 24.453125 0.859375 "/></g></g></g><g fill="#967f71" fill-opacity="1"><g transform="translate(203.007338, 69.900618)"><g><path d="M 17.078125 0 L 17.078125 -1.109375 C 18.390625 -1.515625 19.285156 -2.375 19.765625 -3.6875 C 20.253906 -5 20.5 -7.398438 20.5 -10.890625 L 20.5 -58.6875 L 16.296875 -58.6875 C 12.460938 -58.6875 9.546875 -58.082031 7.546875 -56.875 C 5.546875 -55.675781 3.800781 -53.535156 2.3125 -50.453125 L 1.375 -50.625 L 1.890625 -60.0625 L 46.078125 -60.0625 L 46.59375 -50.625 L 45.640625 -50.453125 C 44.210938 -53.535156 42.5 -55.675781 40.5 -56.875 C 38.5 -58.082031 35.550781 -58.6875 31.65625 -58.6875 L 27.625 -58.6875 L 27.625 -10.890625 C 27.625 -7.398438 27.863281 -5 28.34375 -3.6875 C 28.832031 -2.375 29.738281 -1.515625 31.0625 -1.109375 L 31.0625 0 Z M 17.078125 0 "/></g></g></g></g></g></g><g clip-path="url(#ecf1fe51b0)"><g transform="matrix(1, 0, 0, 1, 0, 8)"><g clip-path="url(#f7f4b660f4)"><g fill="#967f71" fill-opacity="1"><g transform="translate(0.754984, 66.816152)"><g><path d="M 17.25 0 L 2.609375 0 C 1.867188 0 1.375 -0.25 1.125 -0.75 C 0.875 -1.25 0.875 -1.804688 1.125 -2.421875 L 28.171875 -62.875 C 28.484375 -63.550781 28.929688 -64.125 29.515625 -64.59375 C 30.109375 -65.0625 30.71875 -65.296875 31.34375 -65.296875 L 37.03125 -65.296875 C 37.84375 -65.296875 38.539062 -65.0625 39.125 -64.59375 C 39.71875 -64.125 40.140625 -63.550781 40.390625 -62.875 L 67.4375 -2.421875 C 67.6875 -1.804688 67.6875 -1.25 67.4375 -0.75 C 67.1875 -0.25 66.691406 0 65.953125 0 L 52.328125 0 C 51.523438 0 50.84375 -0.234375 50.28125 -0.703125 C 49.71875 -1.171875 49.28125 -1.742188 48.96875 -2.421875 L 42.0625 -17.8125 L 12.40625 -17.8125 L 19.3125 -2.421875 C 19.625 -1.742188 19.609375 -1.171875 19.265625 -0.703125 C 18.921875 -0.234375 18.25 0 17.25 0 Z M 41.515625 -19.125 L 25.75 -54.46875 L 10.90625 -21.171875 L 11.84375 -19.125 Z M 41.515625 -19.125 "/></g></g></g></g></g></g><g clip-path="url(#f78e503e0b)"><g transform="matrix(1, 0, 0, 1, 46, 8)"><g clip-path="url(#aed0181013)"><g clip-path="url(#3b6b9714d1)"><path fill="#967f71" d="M 0.992188 0.933594 L 8.875 0.933594 L 8.875 35.539062 L 0.992188 35.539062 Z M 0.992188 0.933594 " fill-opacity="1" fill-rule="nonzero"/></g></g></g></g><g clip-path="url(#35ead813ad)"><path fill="#967f71" d="M 26.1875 37.574219 L 23.800781 37.574219 C 23.734375 37.574219 23.683594 37.628906 23.683594 37.695312 L 23.683594 40.082031 C 23.683594 40.148438 23.734375 40.199219 23.800781 40.199219 L 26.1875 40.199219 C 26.253906 40.199219 26.308594 40.148438 26.308594 40.082031 L 26.308594 37.695312 C 26.308594 37.628906 26.253906 37.574219 26.1875 37.574219 Z M 26.1875 37.574219 " fill-opacity="1" fill-rule="nonzero"/></g><g clip-path="url(#0ab11fd43c)"><path fill="#967f71" d="M 29.53125 37.574219 L 27.144531 37.574219 C 27.078125 37.574219 27.023438 37.628906 27.023438 37.695312 L 27.023438 40.082031 C 27.023438 40.148438 27.078125 40.199219 27.144531 40.199219 L 29.53125 40.199219 C 29.597656 40.199219 29.652344 40.148438 29.652344 40.082031 L 29.652344 37.695312 C 29.652344 37.628906 29.597656 37.574219 29.53125 37.574219 Z M 29.53125 37.574219 " fill-opacity="1" fill-rule="nonzero"/></g><g clip-path="url(#2ac477ae35)"><path fill="#967f71" d="M 26.1875 40.917969 L 23.800781 40.917969 C 23.734375 40.917969 23.683594 40.96875 23.683594 41.035156 L 23.683594 43.421875 C 23.683594 43.488281 23.734375 43.542969 23.800781 43.542969 L 26.1875 43.542969 C 26.253906 43.542969 26.308594 43.488281 26.308594 43.421875 L 26.308594 41.035156 C 26.308594 40.96875 26.253906 40.917969 26.1875 40.917969 Z M 26.1875 40.917969 " fill-opacity="1" fill-rule="nonzero"/></g><g clip-path="url(#9a4e5760c3)"><path fill="#967f71" d="M 29.53125 40.917969 L 27.144531 40.917969 C 27.078125 40.917969 27.023438 40.96875 27.023438 41.035156 L 27.023438 43.421875 C 27.023438 43.488281 27.078125 43.542969 27.144531 43.542969 L 29.53125 43.542969 C 29.597656 43.542969 29.652344 43.488281 29.652344 43.421875 L 29.652344 41.035156 C 29.652344 40.96875 29.597656 40.917969 29.53125 40.917969 Z M 29.53125 40.917969 " fill-opacity="1" fill-rule="nonzero"/></g></g></g><g clip-path="url(#fd61a4a089)"><g clip-path="url(#1fa3cdaaa6)"><g transform="matrix(1, 0, 0, 1, 754, 895)"><g clip-path="url(#4764832a97)"><g clip-path="url(#1ac67873c5)"><g clip-path="url(#d6d29e174d)"><path fill="#798475" d="M 0.078125 0.28125 L 3.71875 0.28125 L 3.71875 3.921875 L 0.078125 3.921875 Z M 0.078125 0.28125 " fill-opacity="1" fill-rule="nonzero"/></g></g></g></g></g></g><g clip-path="url(#7389110f74)"><g clip-path="url(#bd1ad04b80)"><g transform="matrix(1, 0, 0, 1, 687, 1178)"><g clip-path="url(#a33aef6165)"><g clip-path="url(#323115dc00)"><g clip-path="url(#42e56a875c)"><path fill="#798475" d="M 0.132812 0.0273438 L 4.882812 0.0273438 L 4.882812 4.777344 L 0.132812 4.777344 Z M 0.132812 0.0273438 " fill-opacity="1" fill-rule="nonzero"/></g></g></g></g></g></g></svg>