<svg xmlns="http://www.w3.org/2000/svg" xmlns:xlink="http://www.w3.org/1999/xlink" width="2000" zoomAndPan="magnify" viewBox="0 0 1500 1499.999933" height="2000" preserveAspectRatio="xMidYMid meet" version="1.0"><defs><g/><clipPath id="d9a0d88f85"><rect x="0" width="393" y="0" height="505"/></clipPath><clipPath id="7054010ac0"><path d="M 797.550781 525.96875 L 842.449219 525.96875 L 842.449219 723.113281 L 797.550781 723.113281 Z M 797.550781 525.96875 " clip-rule="nonzero"/></clipPath><clipPath id="f01ebabd07"><path d="M 0.550781 0.96875 L 45.449219 0.96875 L 45.449219 198.113281 L 0.550781 198.113281 Z M 0.550781 0.96875 " clip-rule="nonzero"/></clipPath><clipPath id="ae182a9e2d"><rect x="0" width="46" y="0" height="199"/></clipPath><clipPath id="1e4ac6210c"><path d="M 666.796875 689.109375 L 682 689.109375 L 682 705 L 666.796875 705 Z M 666.796875 689.109375 " clip-rule="nonzero"/></clipPath><clipPath id="e2176a818a"><path d="M 685 689.109375 L 700.546875 689.109375 L 700.546875 705 L 685 705 Z M 685 689.109375 " clip-rule="nonzero"/></clipPath><clipPath id="c0ff3a8a82"><path d="M 666.796875 708 L 682 708 L 682 722.859375 L 666.796875 722.859375 Z M 666.796875 708 " clip-rule="nonzero"/></clipPath><clipPath id="e28142b987"><path d="M 685 708 L 700.546875 708 L 700.546875 722.859375 L 685 722.859375 Z M 685 708 " clip-rule="nonzero"/></clipPath></defs><g transform="matrix(1, 0, 0, 1, 533, 526)"><g clip-path="url(#d9a0d88f85)"><g fill="#967f71" fill-opacity="1"><g transform="translate(1.158881, 375.253844)"><g><path d="M 98.296875 0 L 14.875 0 C 10.625 0 7.789062 -1.414062 6.375 -4.25 C 4.957031 -7.082031 4.957031 -10.269531 6.375 -13.8125 L 160.46875 -358.140625 C 162.238281 -362.035156 164.804688 -365.3125 168.171875 -367.96875 C 171.535156 -370.625 174.988281 -371.953125 178.53125 -371.953125 L 210.953125 -371.953125 C 215.554688 -371.953125 219.539062 -370.625 222.90625 -367.96875 C 226.269531 -365.3125 228.660156 -362.035156 230.078125 -358.140625 L 384.171875 -13.8125 C 385.585938 -10.269531 385.585938 -7.082031 384.171875 -4.25 C 382.753906 -1.414062 379.921875 0 375.671875 0 L 298.09375 0 C 293.488281 0 289.59375 -1.328125 286.40625 -3.984375 C 283.21875 -6.640625 280.738281 -9.914062 278.96875 -13.8125 L 239.640625 -101.484375 L 70.671875 -101.484375 L 109.984375 -13.8125 C 111.753906 -9.914062 111.664062 -6.640625 109.71875 -3.984375 C 107.769531 -1.328125 103.960938 0 98.296875 0 Z M 236.453125 -108.921875 L 146.65625 -310.3125 L 62.171875 -120.625 L 67.484375 -108.921875 Z M 236.453125 -108.921875 "/></g></g></g></g></g><g clip-path="url(#7054010ac0)"><g transform="matrix(1, 0, 0, 1, 797, 525)"><g clip-path="url(#ae182a9e2d)"><g clip-path="url(#f01ebabd07)"><path fill="#967f71" d="M 0.550781 0.96875 L 45.449219 0.96875 L 45.449219 198.085938 L 0.550781 198.085938 Z M 0.550781 0.96875 " fill-opacity="1" fill-rule="nonzero"/></g></g></g></g><g clip-path="url(#1e4ac6210c)"><path fill="#967f71" d="M 681.078125 689.109375 L 667.476562 689.109375 C 667.101562 689.109375 666.796875 689.414062 666.796875 689.789062 L 666.796875 703.390625 C 666.796875 703.765625 667.101562 704.070312 667.476562 704.070312 L 681.078125 704.070312 C 681.453125 704.070312 681.757812 703.765625 681.757812 703.390625 L 681.757812 689.789062 C 681.757812 689.414062 681.453125 689.109375 681.078125 689.109375 Z M 681.078125 689.109375 " fill-opacity="1" fill-rule="nonzero"/></g><g clip-path="url(#e2176a818a)"><path fill="#967f71" d="M 700.113281 689.109375 L 686.515625 689.109375 C 686.140625 689.109375 685.835938 689.414062 685.835938 689.789062 L 685.835938 703.390625 C 685.835938 703.765625 686.140625 704.070312 686.515625 704.070312 L 700.113281 704.070312 C 700.488281 704.070312 700.792969 703.765625 700.792969 703.390625 L 700.792969 689.789062 C 700.792969 689.414062 700.488281 689.109375 700.113281 689.109375 Z M 700.113281 689.109375 " fill-opacity="1" fill-rule="nonzero"/></g><g clip-path="url(#c0ff3a8a82)"><path fill="#967f71" d="M 681.078125 708.148438 L 667.476562 708.148438 C 667.101562 708.148438 666.796875 708.453125 666.796875 708.828125 L 666.796875 722.425781 C 666.796875 722.804688 667.101562 723.105469 667.476562 723.105469 L 681.078125 723.105469 C 681.453125 723.105469 681.757812 722.804688 681.757812 722.425781 L 681.757812 708.828125 C 681.757812 708.453125 681.453125 708.148438 681.078125 708.148438 Z M 681.078125 708.148438 " fill-opacity="1" fill-rule="nonzero"/></g><g clip-path="url(#e28142b987)"><path fill="#967f71" d="M 700.113281 708.148438 L 686.515625 708.148438 C 686.140625 708.148438 685.835938 708.453125 685.835938 708.828125 L 685.835938 722.425781 C 685.835938 722.804688 686.140625 723.105469 686.515625 723.105469 L 700.113281 723.105469 C 700.488281 723.105469 700.792969 722.804688 700.792969 722.425781 L 700.792969 708.828125 C 700.792969 708.453125 700.488281 708.148438 700.113281 708.148438 Z M 700.113281 708.148438 " fill-opacity="1" fill-rule="nonzero"/></g></svg>